# xmcd CD database file
#
# Track frame offsets:
#	187
#	12757
#	25597
#	37237
#	49712
#	63105
#	74507
#	88437
#	100352
#	112682
#	125345
#	137087
#	150530
#	164377
#	178232
#
# Disc length: 2727 seconds
#
# Revision: 2
# Processed by: cddbd v1.5.2PL0 Copyright (c) Steve Scherf et al.
# Submitted via: CDex 1.51
#
DISCID=c70aa50f
DTITLE=Lena Horne - Stormy Lady
DYEAR=1991
DGENRE=Blues
TTITLE0=Whispering
TTITLE1=It's a Rainy Day
TTITLE2=Little Girl Blue
TTITLE3=Old Fashioned Love
TTITLE4=Nobody Knows the Trouble I've Seen
TTITLE5=I Don't  Want to Cry Anymore
TTITLE6=Hesitation Blues
TTITLE7=Glad to be Unhappy
TTITLE8=At Long Last Love
TTITLE9=Sometimes I Feel Like A Motherless Child
TTITLE10=Blue Prelude
TTITLE11=My Man's Gone Now
TTITLE12=More Than You Know
TTITLE13=Beale Street Blues
TTITLE14=Frankie and Johnny
EXTD=YEAR: 1991
EXTT0=
EXTT1=
EXTT2=
EXTT3=
EXTT4=
EXTT5=
EXTT6=
EXTT7=
EXTT8=
EXTT9=
EXTT10=
EXTT11=
EXTT12=
EXTT13=
EXTT14=
PLAYORDER=
